<mxfile host="app.diagrams.net" agent="Mozilla/5.0 (Windows NT 10.0; Win64; x64) AppleWebKit/537.36 (KHTML, like Gecko) Chrome/131.0.0.0 Safari/537.36 Edg/131.0.0.0" version="25.0.1">
  <diagram name="Seite-1" id="Vz7f1Som9HTKloI9b_t3">
    <mxGraphModel dx="991" dy="88" grid="1" gridSize="10" guides="1" tooltips="1" connect="1" arrows="1" fold="1" page="1" pageScale="1" pageWidth="827" pageHeight="1169" math="0" shadow="0">
      <root>
        <mxCell id="0" />
        <mxCell id="1" parent="0" />
        <mxCell id="TfBFMa_nJeksAKJ4__4E-29" value="" style="endArrow=none;dashed=1;html=1;rounded=0;entryX=0.5;entryY=1;entryDx=0;entryDy=0;" edge="1" parent="1">
          <mxGeometry width="50" height="50" relative="1" as="geometry">
            <mxPoint x="513.8" y="605" as="sourcePoint" />
            <mxPoint x="514" y="565" as="targetPoint" />
          </mxGeometry>
        </mxCell>
        <mxCell id="TfBFMa_nJeksAKJ4__4E-9" value="sd applying diff instruction&amp;nbsp;" style="shape=umlFrame;whiteSpace=wrap;html=1;pointerEvents=0;width=130;height=40;" vertex="1" parent="1">
          <mxGeometry x="-60" y="30" width="640" height="590" as="geometry" />
        </mxCell>
        <mxCell id="_qXaZIHhWSCAouoO_Cvu-1" value=":Handler" style="html=1;whiteSpace=wrap;" parent="1" vertex="1">
          <mxGeometry x="9" y="90" width="110" height="50" as="geometry" />
        </mxCell>
        <mxCell id="_qXaZIHhWSCAouoO_Cvu-2" value="LLM" style="shape=umlActor;verticalLabelPosition=bottom;verticalAlign=top;html=1;" parent="1" vertex="1">
          <mxGeometry x="285" y="70" width="30" height="60" as="geometry" />
        </mxCell>
        <mxCell id="_qXaZIHhWSCAouoO_Cvu-4" value="" style="endArrow=none;dashed=1;html=1;rounded=0;exitX=0.5;exitY=0;exitDx=0;exitDy=0;" parent="1" edge="1" source="TfBFMa_nJeksAKJ4__4E-18">
          <mxGeometry width="50" height="50" relative="1" as="geometry">
            <mxPoint x="513.6600000000002" y="497.9999999999999" as="sourcePoint" />
            <mxPoint x="513.66" y="160" as="targetPoint" />
          </mxGeometry>
        </mxCell>
        <mxCell id="_qXaZIHhWSCAouoO_Cvu-5" value="send(code)" style="html=1;verticalAlign=bottom;endArrow=block;curved=0;rounded=0;endSize=8;" parent="1" edge="1">
          <mxGeometry width="80" relative="1" as="geometry">
            <mxPoint x="74" y="220" as="sourcePoint" />
            <mxPoint x="284" y="220" as="targetPoint" />
          </mxGeometry>
        </mxCell>
        <mxCell id="_qXaZIHhWSCAouoO_Cvu-6" value="&lt;b&gt;int &lt;/b&gt;x;&lt;div&gt;&lt;b&gt;int &lt;/b&gt;y;&lt;/div&gt;&lt;div&gt;&lt;b&gt;int &lt;/b&gt;z;&lt;/div&gt;" style="shape=note;whiteSpace=wrap;html=1;backgroundOutline=1;darkOpacity=0.05;size=26;" parent="1" vertex="1">
          <mxGeometry x="140" y="260" width="80" height="90" as="geometry" />
        </mxCell>
        <mxCell id="_qXaZIHhWSCAouoO_Cvu-10" value="{&lt;div&gt;&lt;span style=&quot;white-space: pre;&quot;&gt;&#x9;&lt;/span&gt;&quot;&lt;b&gt;&lt;i&gt;fromLine&lt;/i&gt;&lt;/b&gt;&quot;: 1,&lt;/div&gt;&lt;div&gt;&lt;span style=&quot;white-space: pre;&quot;&gt;&#x9;&lt;/span&gt;&quot;&lt;i style=&quot;font-weight: bold;&quot;&gt;oldContent&lt;/i&gt;&quot;: &quot;&lt;b&gt;int &lt;/b&gt;x;...&quot;,&lt;/div&gt;&lt;div&gt;&lt;span style=&quot;white-space: pre;&quot;&gt;&#x9;&lt;/span&gt;&quot;&lt;b&gt;&lt;i&gt;newContent&lt;/i&gt;&lt;/b&gt;&quot;: &quot;&lt;b&gt;Point&lt;/b&gt; pt;&quot;&lt;br&gt;&lt;div&gt;}&lt;/div&gt;&lt;/div&gt;" style="shape=note;whiteSpace=wrap;html=1;backgroundOutline=1;darkOpacity=0.05;align=left;" parent="1" vertex="1">
          <mxGeometry x="90" y="430" width="170" height="90" as="geometry" />
        </mxCell>
        <mxCell id="_qXaZIHhWSCAouoO_Cvu-12" value="File system" style="shape=umlActor;verticalLabelPosition=bottom;verticalAlign=top;html=1;" parent="1" vertex="1">
          <mxGeometry x="499" y="70" width="30" height="60" as="geometry" />
        </mxCell>
        <mxCell id="_qXaZIHhWSCAouoO_Cvu-14" value="apply(diff)" style="html=1;verticalAlign=bottom;endArrow=block;curved=0;rounded=0;endSize=8;entryX=0;entryY=0.25;entryDx=0;entryDy=0;" parent="1" edge="1" target="TfBFMa_nJeksAKJ4__4E-18">
          <mxGeometry x="0.5163" width="80" relative="1" as="geometry">
            <mxPoint x="70" y="540" as="sourcePoint" />
            <mxPoint x="500" y="540" as="targetPoint" />
            <mxPoint as="offset" />
          </mxGeometry>
        </mxCell>
        <mxCell id="_qXaZIHhWSCAouoO_Cvu-15" value="&lt;b&gt;Point &lt;/b&gt;pt" style="shape=note;whiteSpace=wrap;html=1;backgroundOutline=1;darkOpacity=0.05;" parent="1" vertex="1">
          <mxGeometry x="382" y="370" width="80" height="90" as="geometry" />
        </mxCell>
        <mxCell id="_qXaZIHhWSCAouoO_Cvu-18" value="return" style="html=1;verticalAlign=bottom;endArrow=block;dashed=1;endSize=8;curved=0;rounded=0;endFill=1;entryX=0.999;entryY=0.874;entryDx=0;entryDy=0;entryPerimeter=0;" parent="1" edge="1">
          <mxGeometry x="0.5545" y="-2" relative="1" as="geometry">
            <mxPoint x="505" y="560" as="sourcePoint" />
            <mxPoint x="73.97999999999979" y="560.86" as="targetPoint" />
            <mxPoint as="offset" />
          </mxGeometry>
        </mxCell>
        <mxCell id="TfBFMa_nJeksAKJ4__4E-10" value="" style="endArrow=none;dashed=1;html=1;rounded=0;" edge="1" parent="1">
          <mxGeometry width="50" height="50" relative="1" as="geometry">
            <mxPoint x="64.01" y="610" as="sourcePoint" />
            <mxPoint x="63.92222222222232" y="590" as="targetPoint" />
            <Array as="points">
              <mxPoint x="64.01" y="600" />
            </Array>
          </mxGeometry>
        </mxCell>
        <mxCell id="TfBFMa_nJeksAKJ4__4E-3" value="" style="rounded=0;whiteSpace=wrap;html=1;" vertex="1" parent="1">
          <mxGeometry x="54" y="180" width="20" height="410" as="geometry" />
        </mxCell>
        <mxCell id="TfBFMa_nJeksAKJ4__4E-11" value="" style="endArrow=block;html=1;rounded=0;endFill=1;exitX=0.018;exitY=0.729;exitDx=0;exitDy=0;exitPerimeter=0;endSize=8;startSize=8;" edge="1" parent="1" source="TfBFMa_nJeksAKJ4__4E-12">
          <mxGeometry width="50" height="50" relative="1" as="geometry">
            <mxPoint x="-53.539999999999964" y="199.8800000000001" as="sourcePoint" />
            <mxPoint x="54" y="200" as="targetPoint" />
          </mxGeometry>
        </mxCell>
        <mxCell id="TfBFMa_nJeksAKJ4__4E-12" value="handle" style="text;html=1;align=center;verticalAlign=middle;resizable=0;points=[];autosize=1;strokeColor=none;fillColor=none;" vertex="1" parent="1">
          <mxGeometry x="-60" y="178" width="60" height="30" as="geometry" />
        </mxCell>
        <mxCell id="TfBFMa_nJeksAKJ4__4E-13" value="return" style="html=1;verticalAlign=bottom;endArrow=block;dashed=1;endSize=8;curved=0;rounded=0;endFill=1;entryX=0.003;entryY=0.899;entryDx=0;entryDy=0;entryPerimeter=0;" edge="1" parent="1">
          <mxGeometry relative="1" as="geometry">
            <mxPoint x="51.78" y="580" as="sourcePoint" />
            <mxPoint x="-59.99999999999997" y="580.41" as="targetPoint" />
          </mxGeometry>
        </mxCell>
        <mxCell id="TfBFMa_nJeksAKJ4__4E-14" value="" style="endArrow=none;dashed=1;html=1;rounded=0;" edge="1" parent="1" source="_qXaZIHhWSCAouoO_Cvu-8">
          <mxGeometry width="50" height="50" relative="1" as="geometry">
            <mxPoint x="299.28999999999996" y="595" as="sourcePoint" />
            <mxPoint x="300.28999999999996" y="155" as="targetPoint" />
          </mxGeometry>
        </mxCell>
        <mxCell id="TfBFMa_nJeksAKJ4__4E-15" value="" style="endArrow=none;dashed=1;html=1;rounded=0;entryX=0.5;entryY=1;entryDx=0;entryDy=0;" edge="1" parent="1" target="_qXaZIHhWSCAouoO_Cvu-8">
          <mxGeometry width="50" height="50" relative="1" as="geometry">
            <mxPoint x="300" y="608.08" as="sourcePoint" />
            <mxPoint x="299.79999999999995" y="409.99999999999994" as="targetPoint" />
          </mxGeometry>
        </mxCell>
        <mxCell id="_qXaZIHhWSCAouoO_Cvu-8" value="" style="rounded=0;whiteSpace=wrap;html=1;" parent="1" vertex="1">
          <mxGeometry x="290" y="208" width="20" height="192" as="geometry" />
        </mxCell>
        <mxCell id="TfBFMa_nJeksAKJ4__4E-16" value="return(diff)" style="html=1;verticalAlign=bottom;endArrow=block;dashed=1;endSize=8;curved=0;rounded=0;endFill=1;entryX=1.019;entryY=0.462;entryDx=0;entryDy=0;entryPerimeter=0;" edge="1" parent="1">
          <mxGeometry relative="1" as="geometry">
            <mxPoint x="290" y="395.27000000000004" as="sourcePoint" />
            <mxPoint x="74.37999999999988" y="394.7300000000001" as="targetPoint" />
          </mxGeometry>
        </mxCell>
        <mxCell id="TfBFMa_nJeksAKJ4__4E-21" value="" style="endArrow=none;dashed=1;html=1;rounded=0;entryX=0.605;entryY=1.014;entryDx=0;entryDy=0;entryPerimeter=0;" edge="1" parent="1">
          <mxGeometry width="50" height="50" relative="1" as="geometry">
            <mxPoint x="430" y="538.74" as="sourcePoint" />
            <mxPoint x="430.4000000000001" y="460" as="targetPoint" />
          </mxGeometry>
        </mxCell>
        <mxCell id="TfBFMa_nJeksAKJ4__4E-18" value="" style="rounded=0;whiteSpace=wrap;html=1;" vertex="1" parent="1">
          <mxGeometry x="504" y="528" width="20" height="42" as="geometry" />
        </mxCell>
        <mxCell id="TfBFMa_nJeksAKJ4__4E-25" value="" style="endArrow=none;dashed=1;html=1;rounded=0;exitX=0.5;exitY=0;exitDx=0;exitDy=0;exitPerimeter=0;" edge="1" parent="1">
          <mxGeometry width="50" height="50" relative="1" as="geometry">
            <mxPoint x="175" y="427" as="sourcePoint" />
            <mxPoint x="175" y="397" as="targetPoint" />
          </mxGeometry>
        </mxCell>
        <mxCell id="TfBFMa_nJeksAKJ4__4E-31" value="" style="endArrow=none;dashed=1;html=1;rounded=0;exitX=0.625;exitY=-0.016;exitDx=0;exitDy=0;exitPerimeter=0;" edge="1" parent="1">
          <mxGeometry width="50" height="50" relative="1" as="geometry">
            <mxPoint x="174.84000000000023" y="260" as="sourcePoint" />
            <mxPoint x="174.84" y="221.44" as="targetPoint" />
          </mxGeometry>
        </mxCell>
        <mxCell id="TfBFMa_nJeksAKJ4__4E-33" value="" style="endArrow=none;dashed=1;html=1;rounded=0;exitX=0.5;exitY=0;exitDx=0;exitDy=0;entryX=0.5;entryY=1;entryDx=0;entryDy=0;" edge="1" parent="1" source="TfBFMa_nJeksAKJ4__4E-3" target="_qXaZIHhWSCAouoO_Cvu-1">
          <mxGeometry width="50" height="50" relative="1" as="geometry">
            <mxPoint x="50" y="180" as="sourcePoint" />
            <mxPoint x="100" y="130" as="targetPoint" />
          </mxGeometry>
        </mxCell>
      </root>
    </mxGraphModel>
  </diagram>
</mxfile>
